<svg xmlns="http://www.w3.org/2000/svg" version="1.1" class="qr-svg " style="width: 100%; height: auto;" viewBox="0 0 39 39">
<defs><style>rect{shape-rendering:crispEdges}</style></defs>
<path class="qr-4 " stroke="transparent" fill="#fff" fill-opacity="1" d="M10 1 h4 v1 h-4Z M16 1 h1 v1 h-1Z M18 1 h1 v1 h-1Z M21 1 h5 v1 h-5Z M28 1 h1 v1 h-1Z M10 2 h2 v1 h-2Z M17 2 h2 v1 h-2Z M20 2 h1 v1 h-1Z M22 2 h2 v1 h-2Z M29 2 h1 v1 h-1Z M11 3 h2 v1 h-2Z M14 3 h1 v1 h-1Z M16 3 h2 v1 h-2Z M23 3 h2 v1 h-2Z M26 3 h1 v1 h-1Z M28 3 h2 v1 h-2Z M12 4 h1 v1 h-1Z M14 4 h4 v1 h-4Z M19 4 h1 v1 h-1Z M24 4 h1 v1 h-1Z M26 4 h3 v1 h-3Z M12 5 h1 v1 h-1Z M14 5 h4 v1 h-4Z M19 5 h1 v1 h-1Z M24 5 h1 v1 h-1Z M26 5 h4 v1 h-4Z M12 6 h5 v1 h-5Z M19 6 h1 v1 h-1Z M21 6 h1 v1 h-1Z M24 6 h6 v1 h-6Z M10 8 h1 v1 h-1Z M13 8 h1 v1 h-1Z M15 8 h1 v1 h-1Z M18 8 h5 v1 h-5Z M25 8 h1 v1 h-1Z M27 8 h1 v1 h-1Z M29 8 h1 v1 h-1Z M10 9 h1 v1 h-1Z M12 9 h1 v1 h-1Z M15 9 h5 v1 h-5Z M22 9 h1 v1 h-1Z M24 9 h1 v1 h-1Z M27 9 h1 v1 h-1Z M5 10 h1 v1 h-1Z M8 10 h1 v1 h-1Z M10 10 h4 v1 h-4Z M16 10 h1 v1 h-1Z M18 10 h1 v1 h-1Z M21 10 h5 v1 h-5Z M31 10 h1 v1 h-1Z M34 10 h1 v1 h-1Z M37 10 h1 v1 h-1Z M6 11 h1 v1 h-1Z M11 11 h6 v1 h-6Z M19 11 h1 v1 h-1Z M21 11 h1 v1 h-1Z M24 11 h4 v1 h-4Z M30 11 h3 v1 h-3Z M37 11 h1 v1 h-1Z M3 12 h2 v1 h-2Z M6 12 h1 v1 h-1Z M9 12 h1 v1 h-1Z M11 12 h2 v1 h-2Z M14 12 h1 v1 h-1Z M16 12 h2 v1 h-2Z M23 12 h2 v1 h-2Z M26 12 h1 v1 h-1Z M29 12 h5 v1 h-5Z M36 12 h2 v1 h-2Z M2 13 h1 v1 h-1Z M4 13 h2 v1 h-2Z M8 13 h1 v1 h-1Z M13 13 h1 v1 h-1Z M18 13 h1 v1 h-1Z M20 13 h4 v1 h-4Z M25 13 h1 v1 h-1Z M30 13 h1 v1 h-1Z M32 13 h2 v1 h-2Z M36 13 h1 v1 h-1Z M2 14 h1 v1 h-1Z M4 14 h2 v1 h-2Z M11 14 h2 v1 h-2Z M14 14 h4 v1 h-4Z M19 14 h1 v1 h-1Z M24 14 h1 v1 h-1Z M26 14 h2 v1 h-2Z M31 14 h1 v1 h-1Z M34 14 h1 v1 h-1Z M37 14 h1 v1 h-1Z M1 15 h3 v1 h-3Z M5 15 h1 v1 h-1Z M9 15 h2 v1 h-2Z M17 15 h2 v1 h-2Z M20 15 h1 v1 h-1Z M22 15 h2 v1 h-2Z M31 15 h4 v1 h-4Z M37 15 h1 v1 h-1Z M3 16 h2 v1 h-2Z M6 16 h1 v1 h-1Z M10 16 h1 v1 h-1Z M13 16 h1 v1 h-1Z M15 16 h1 v1 h-1Z M18 16 h5 v1 h-5Z M25 16 h1 v1 h-1Z M27 16 h1 v1 h-1Z M31 16 h3 v1 h-3Z M37 16 h1 v1 h-1Z M1 17 h1 v1 h-1Z M3 17 h2 v1 h-2Z M8 17 h1 v1 h-1Z M11 17 h2 v1 h-2Z M15 17 h5 v1 h-5Z M22 17 h1 v1 h-1Z M24 17 h1 v1 h-1Z M27 17 h1 v1 h-1Z M30 17 h1 v1 h-1Z M32 17 h2 v1 h-2Z M36 17 h1 v1 h-1Z M4 18 h1 v1 h-1Z M6 18 h1 v1 h-1Z M8 18 h3 v1 h-3Z M12 18 h2 v1 h-2Z M16 18 h1 v1 h-1Z M18 18 h1 v1 h-1Z M21 18 h5 v1 h-5Z M29 18 h1 v1 h-1Z M31 18 h1 v1 h-1Z M34 18 h1 v1 h-1Z M37 18 h1 v1 h-1Z M3 19 h3 v1 h-3Z M8 19 h1 v1 h-1Z M10 19 h7 v1 h-7Z M19 19 h1 v1 h-1Z M21 19 h1 v1 h-1Z M24 19 h4 v1 h-4Z M29 19 h1 v1 h-1Z M31 19 h2 v1 h-2Z M37 19 h1 v1 h-1Z M1 20 h1 v1 h-1Z M5 20 h2 v1 h-2Z M12 20 h1 v1 h-1Z M14 20 h1 v1 h-1Z M16 20 h2 v1 h-2Z M23 20 h2 v1 h-2Z M26 20 h1 v1 h-1Z M30 20 h1 v1 h-1Z M32 20 h2 v1 h-2Z M1 21 h3 v1 h-3Z M9 21 h1 v1 h-1Z M11 21 h1 v1 h-1Z M13 21 h1 v1 h-1Z M18 21 h1 v1 h-1Z M20 21 h4 v1 h-4Z M25 21 h1 v1 h-1Z M28 21 h1 v1 h-1Z M30 21 h1 v1 h-1Z M32 21 h2 v1 h-2Z M1 22 h1 v1 h-1Z M3 22 h1 v1 h-1Z M5 22 h1 v1 h-1Z M9 22 h4 v1 h-4Z M14 22 h4 v1 h-4Z M19 22 h1 v1 h-1Z M24 22 h1 v1 h-1Z M26 22 h2 v1 h-2Z M29 22 h1 v1 h-1Z M31 22 h1 v1 h-1Z M34 22 h2 v1 h-2Z M37 22 h1 v1 h-1Z M2 23 h2 v1 h-2Z M5 23 h2 v1 h-2Z M8 23 h1 v1 h-1Z M11 23 h1 v1 h-1Z M17 23 h2 v1 h-2Z M20 23 h1 v1 h-1Z M22 23 h2 v1 h-2Z M31 23 h5 v1 h-5Z M37 23 h1 v1 h-1Z M1 24 h2 v1 h-2Z M4 24 h2 v1 h-2Z M9 24 h2 v1 h-2Z M13 24 h1 v1 h-1Z M15 24 h1 v1 h-1Z M18 24 h5 v1 h-5Z M25 24 h1 v1 h-1Z M27 24 h1 v1 h-1Z M30 24 h2 v1 h-2Z M37 24 h1 v1 h-1Z M2 25 h2 v1 h-2Z M5 25 h1 v1 h-1Z M8 25 h1 v1 h-1Z M12 25 h1 v1 h-1Z M15 25 h5 v1 h-5Z M22 25 h1 v1 h-1Z M24 25 h1 v1 h-1Z M27 25 h2 v1 h-2Z M30 25 h1 v1 h-1Z M32 25 h2 v1 h-2Z M37 25 h1 v1 h-1Z M2 26 h3 v1 h-3Z M8 26 h2 v1 h-2Z M11 26 h3 v1 h-3Z M16 26 h1 v1 h-1Z M18 26 h1 v1 h-1Z M21 26 h5 v1 h-5Z M29 26 h1 v1 h-1Z M31 26 h2 v1 h-2Z M34 26 h1 v1 h-1Z M37 26 h1 v1 h-1Z M1 27 h3 v1 h-3Z M5 27 h2 v1 h-2Z M8 27 h2 v1 h-2Z M12 27 h5 v1 h-5Z M19 27 h1 v1 h-1Z M21 27 h1 v1 h-1Z M24 27 h4 v1 h-4Z M29 27 h1 v1 h-1Z M32 27 h3 v1 h-3Z M36 27 h2 v1 h-2Z M1 28 h3 v1 h-3Z M6 28 h1 v1 h-1Z M8 28 h2 v1 h-2Z M11 28 h2 v1 h-2Z M14 28 h1 v1 h-1Z M16 28 h2 v1 h-2Z M23 28 h2 v1 h-2Z M26 28 h1 v1 h-1Z M29 28 h3 v1 h-3Z M37 28 h1 v1 h-1Z M4 29 h2 v1 h-2Z M8 29 h1 v1 h-1Z M11 29 h1 v1 h-1Z M13 29 h1 v1 h-1Z M18 29 h1 v1 h-1Z M20 29 h4 v1 h-4Z M25 29 h1 v1 h-1Z M28 29 h1 v1 h-1Z M37 29 h1 v1 h-1Z M12 30 h1 v1 h-1Z M14 30 h4 v1 h-4Z M19 30 h1 v1 h-1Z M24 30 h1 v1 h-1Z M26 30 h2 v1 h-2Z M35 30 h1 v1 h-1Z M37 30 h1 v1 h-1Z M17 31 h2 v1 h-2Z M20 31 h1 v1 h-1Z M22 31 h2 v1 h-2Z M28 31 h1 v1 h-1Z M36 31 h2 v1 h-2Z M10 32 h1 v1 h-1Z M13 32 h1 v1 h-1Z M15 32 h1 v1 h-1Z M18 32 h5 v1 h-5Z M25 32 h1 v1 h-1Z M27 32 h1 v1 h-1Z M36 32 h1 v1 h-1Z M11 33 h2 v1 h-2Z M15 33 h5 v1 h-5Z M22 33 h1 v1 h-1Z M24 33 h1 v1 h-1Z M27 33 h2 v1 h-2Z M37 33 h1 v1 h-1Z M10 34 h4 v1 h-4Z M16 34 h1 v1 h-1Z M18 34 h1 v1 h-1Z M21 34 h5 v1 h-5Z M28 34 h3 v1 h-3Z M32 34 h4 v1 h-4Z M10 35 h1 v1 h-1Z M12 35 h5 v1 h-5Z M19 35 h1 v1 h-1Z M21 35 h1 v1 h-1Z M24 35 h5 v1 h-5Z M30 35 h1 v1 h-1Z M33 35 h1 v1 h-1Z M35 35 h1 v1 h-1Z M37 35 h1 v1 h-1Z M12 36 h1 v1 h-1Z M14 36 h1 v1 h-1Z M16 36 h2 v1 h-2Z M23 36 h2 v1 h-2Z M26 36 h1 v1 h-1Z M28 36 h2 v1 h-2Z M31 36 h1 v1 h-1Z M37 36 h1 v1 h-1Z M10 37 h1 v1 h-1Z M13 37 h1 v1 h-1Z M18 37 h1 v1 h-1Z M20 37 h4 v1 h-4Z M25 37 h1 v1 h-1Z M28 37 h3 v1 h-3Z " /><path class="qr-6 " stroke="transparent" fill="#fff" fill-opacity="1" d="M2 2 h5 v1 h-5Z M32 2 h5 v1 h-5Z M2 3 h1 v1 h-1Z M6 3 h1 v1 h-1Z M32 3 h1 v1 h-1Z M36 3 h1 v1 h-1Z M2 4 h1 v1 h-1Z M6 4 h1 v1 h-1Z M32 4 h1 v1 h-1Z M36 4 h1 v1 h-1Z M2 5 h1 v1 h-1Z M6 5 h1 v1 h-1Z M32 5 h1 v1 h-1Z M36 5 h1 v1 h-1Z M2 6 h5 v1 h-5Z M32 6 h5 v1 h-5Z M2 32 h5 v1 h-5Z M2 33 h1 v1 h-1Z M6 33 h1 v1 h-1Z M2 34 h1 v1 h-1Z M6 34 h1 v1 h-1Z M2 35 h1 v1 h-1Z M6 35 h1 v1 h-1Z M2 36 h5 v1 h-5Z " /><path class="qr-8 " stroke="transparent" fill="#fff" fill-opacity="1" d="M8 1 h1 v1 h-1Z M30 1 h1 v1 h-1Z M8 2 h1 v1 h-1Z M30 2 h1 v1 h-1Z M8 3 h1 v1 h-1Z M30 3 h1 v1 h-1Z M8 4 h1 v1 h-1Z M30 4 h1 v1 h-1Z M8 5 h1 v1 h-1Z M30 5 h1 v1 h-1Z M8 6 h1 v1 h-1Z M30 6 h1 v1 h-1Z M8 7 h1 v1 h-1Z M30 7 h1 v1 h-1Z M1 8 h8 v1 h-8Z M30 8 h8 v1 h-8Z M1 30 h8 v1 h-8Z M8 31 h1 v1 h-1Z M8 32 h1 v1 h-1Z M8 33 h1 v1 h-1Z M8 34 h1 v1 h-1Z M8 35 h1 v1 h-1Z M8 36 h1 v1 h-1Z M8 37 h1 v1 h-1Z " /><path class="qr-10 " stroke="transparent" fill="#fff" fill-opacity="1" d="M30 30 h3 v1 h-3Z M30 31 h1 v1 h-1Z M32 31 h1 v1 h-1Z M30 32 h3 v1 h-3Z " /><path class="qr-12 " stroke="transparent" fill="#fff" fill-opacity="1" d="M10 7 h1 v1 h-1Z M12 7 h1 v1 h-1Z M14 7 h1 v1 h-1Z M16 7 h1 v1 h-1Z M18 7 h1 v1 h-1Z M20 7 h1 v1 h-1Z M22 7 h1 v1 h-1Z M24 7 h1 v1 h-1Z M26 7 h1 v1 h-1Z M28 7 h1 v1 h-1Z M7 10 h1 v1 h-1Z M7 12 h1 v1 h-1Z M7 14 h1 v1 h-1Z M7 16 h1 v1 h-1Z M7 18 h1 v1 h-1Z M7 20 h1 v1 h-1Z M7 22 h1 v1 h-1Z M7 24 h1 v1 h-1Z M7 26 h1 v1 h-1Z M7 28 h1 v1 h-1Z " /><path class="qr-14 " stroke="transparent" fill="#fff" fill-opacity="1" d="M9 5 h1 v1 h-1Z M9 8 h1 v1 h-1Z M3 9 h2 v1 h-2Z M8 9 h2 v1 h-2Z M30 9 h2 v1 h-2Z M33 9 h1 v1 h-1Z M9 31 h1 v1 h-1Z M9 34 h1 v1 h-1Z M9 35 h1 v1 h-1Z " /><path class="qr-18 " stroke="transparent" fill="#fff" fill-opacity="1" d="M0 0 h39 v1 h-39Z M0 1 h1 v1 h-1Z M38 1 h1 v1 h-1Z M0 2 h1 v1 h-1Z M38 2 h1 v1 h-1Z M0 3 h1 v1 h-1Z M38 3 h1 v1 h-1Z M0 4 h1 v1 h-1Z M38 4 h1 v1 h-1Z M0 5 h1 v1 h-1Z M38 5 h1 v1 h-1Z M0 6 h1 v1 h-1Z M38 6 h1 v1 h-1Z M0 7 h1 v1 h-1Z M38 7 h1 v1 h-1Z M0 8 h1 v1 h-1Z M38 8 h1 v1 h-1Z M0 9 h1 v1 h-1Z M38 9 h1 v1 h-1Z M0 10 h1 v1 h-1Z M38 10 h1 v1 h-1Z M0 11 h1 v1 h-1Z M38 11 h1 v1 h-1Z M0 12 h1 v1 h-1Z M38 12 h1 v1 h-1Z M0 13 h1 v1 h-1Z M38 13 h1 v1 h-1Z M0 14 h1 v1 h-1Z M38 14 h1 v1 h-1Z M0 15 h1 v1 h-1Z M38 15 h1 v1 h-1Z M0 16 h1 v1 h-1Z M38 16 h1 v1 h-1Z M0 17 h1 v1 h-1Z M38 17 h1 v1 h-1Z M0 18 h1 v1 h-1Z M38 18 h1 v1 h-1Z M0 19 h1 v1 h-1Z M38 19 h1 v1 h-1Z M0 20 h1 v1 h-1Z M38 20 h1 v1 h-1Z M0 21 h1 v1 h-1Z M38 21 h1 v1 h-1Z M0 22 h1 v1 h-1Z M38 22 h1 v1 h-1Z M0 23 h1 v1 h-1Z M38 23 h1 v1 h-1Z M0 24 h1 v1 h-1Z M38 24 h1 v1 h-1Z M0 25 h1 v1 h-1Z M38 25 h1 v1 h-1Z M0 26 h1 v1 h-1Z M38 26 h1 v1 h-1Z M0 27 h1 v1 h-1Z M38 27 h1 v1 h-1Z M0 28 h1 v1 h-1Z M38 28 h1 v1 h-1Z M0 29 h1 v1 h-1Z M38 29 h1 v1 h-1Z M0 30 h1 v1 h-1Z M38 30 h1 v1 h-1Z M0 31 h1 v1 h-1Z M38 31 h1 v1 h-1Z M0 32 h1 v1 h-1Z M38 32 h1 v1 h-1Z M0 33 h1 v1 h-1Z M38 33 h1 v1 h-1Z M0 34 h1 v1 h-1Z M38 34 h1 v1 h-1Z M0 35 h1 v1 h-1Z M38 35 h1 v1 h-1Z M0 36 h1 v1 h-1Z M38 36 h1 v1 h-1Z M0 37 h1 v1 h-1Z M38 37 h1 v1 h-1Z M0 38 h39 v1 h-39Z " /><path class="qr-512 " stroke="transparent" fill="#000" fill-opacity="1" d="M9 30 h1 v1 h-1Z " /><path class="qr-1024 " stroke="transparent" fill="#000" fill-opacity="1" d="M14 1 h2 v1 h-2Z M17 1 h1 v1 h-1Z M19 1 h2 v1 h-2Z M26 1 h2 v1 h-2Z M29 1 h1 v1 h-1Z M12 2 h5 v1 h-5Z M19 2 h1 v1 h-1Z M21 2 h1 v1 h-1Z M24 2 h5 v1 h-5Z M10 3 h1 v1 h-1Z M13 3 h1 v1 h-1Z M15 3 h1 v1 h-1Z M18 3 h5 v1 h-5Z M25 3 h1 v1 h-1Z M27 3 h1 v1 h-1Z M10 4 h2 v1 h-2Z M13 4 h1 v1 h-1Z M18 4 h1 v1 h-1Z M20 4 h4 v1 h-4Z M25 4 h1 v1 h-1Z M29 4 h1 v1 h-1Z M10 5 h2 v1 h-2Z M13 5 h1 v1 h-1Z M18 5 h1 v1 h-1Z M20 5 h4 v1 h-4Z M25 5 h1 v1 h-1Z M10 6 h2 v1 h-2Z M17 6 h2 v1 h-2Z M20 6 h1 v1 h-1Z M22 6 h2 v1 h-2Z M11 8 h2 v1 h-2Z M14 8 h1 v1 h-1Z M16 8 h2 v1 h-2Z M23 8 h2 v1 h-2Z M26 8 h1 v1 h-1Z M28 8 h1 v1 h-1Z M11 9 h1 v1 h-1Z M13 9 h2 v1 h-2Z M20 9 h2 v1 h-2Z M23 9 h1 v1 h-1Z M25 9 h2 v1 h-2Z M28 9 h2 v1 h-2Z M1 10 h4 v1 h-4Z M6 10 h1 v1 h-1Z M9 10 h1 v1 h-1Z M14 10 h2 v1 h-2Z M17 10 h1 v1 h-1Z M19 10 h2 v1 h-2Z M26 10 h5 v1 h-5Z M32 10 h2 v1 h-2Z M35 10 h2 v1 h-2Z M1 11 h5 v1 h-5Z M8 11 h3 v1 h-3Z M17 11 h2 v1 h-2Z M20 11 h1 v1 h-1Z M22 11 h2 v1 h-2Z M28 11 h2 v1 h-2Z M33 11 h4 v1 h-4Z M1 12 h2 v1 h-2Z M5 12 h1 v1 h-1Z M8 12 h1 v1 h-1Z M10 12 h1 v1 h-1Z M13 12 h1 v1 h-1Z M15 12 h1 v1 h-1Z M18 12 h5 v1 h-5Z M25 12 h1 v1 h-1Z M27 12 h2 v1 h-2Z M34 12 h2 v1 h-2Z M1 13 h1 v1 h-1Z M3 13 h1 v1 h-1Z M6 13 h1 v1 h-1Z M9 13 h4 v1 h-4Z M14 13 h4 v1 h-4Z M19 13 h1 v1 h-1Z M24 13 h1 v1 h-1Z M26 13 h4 v1 h-4Z M31 13 h1 v1 h-1Z M34 13 h2 v1 h-2Z M37 13 h1 v1 h-1Z M1 14 h1 v1 h-1Z M3 14 h1 v1 h-1Z M6 14 h1 v1 h-1Z M8 14 h3 v1 h-3Z M13 14 h1 v1 h-1Z M18 14 h1 v1 h-1Z M20 14 h4 v1 h-4Z M25 14 h1 v1 h-1Z M28 14 h3 v1 h-3Z M32 14 h2 v1 h-2Z M35 14 h2 v1 h-2Z M4 15 h1 v1 h-1Z M6 15 h1 v1 h-1Z M8 15 h1 v1 h-1Z M11 15 h6 v1 h-6Z M19 15 h1 v1 h-1Z M21 15 h1 v1 h-1Z M24 15 h7 v1 h-7Z M35 15 h2 v1 h-2Z M1 16 h2 v1 h-2Z M5 16 h1 v1 h-1Z M8 16 h2 v1 h-2Z M11 16 h2 v1 h-2Z M14 16 h1 v1 h-1Z M16 16 h2 v1 h-2Z M23 16 h2 v1 h-2Z M26 16 h1 v1 h-1Z M28 16 h3 v1 h-3Z M34 16 h3 v1 h-3Z M2 17 h1 v1 h-1Z M5 17 h2 v1 h-2Z M9 17 h2 v1 h-2Z M13 17 h2 v1 h-2Z M20 17 h2 v1 h-2Z M23 17 h1 v1 h-1Z M25 17 h2 v1 h-2Z M28 17 h2 v1 h-2Z M31 17 h1 v1 h-1Z M34 17 h2 v1 h-2Z M37 17 h1 v1 h-1Z M1 18 h3 v1 h-3Z M5 18 h1 v1 h-1Z M11 18 h1 v1 h-1Z M14 18 h2 v1 h-2Z M17 18 h1 v1 h-1Z M19 18 h2 v1 h-2Z M26 18 h3 v1 h-3Z M30 18 h1 v1 h-1Z M32 18 h2 v1 h-2Z M35 18 h2 v1 h-2Z M1 19 h2 v1 h-2Z M6 19 h1 v1 h-1Z M9 19 h1 v1 h-1Z M17 19 h2 v1 h-2Z M20 19 h1 v1 h-1Z M22 19 h2 v1 h-2Z M28 19 h1 v1 h-1Z M30 19 h1 v1 h-1Z M33 19 h4 v1 h-4Z M2 20 h3 v1 h-3Z M8 20 h4 v1 h-4Z M13 20 h1 v1 h-1Z M15 20 h1 v1 h-1Z M18 20 h5 v1 h-5Z M25 20 h1 v1 h-1Z M27 20 h3 v1 h-3Z M31 20 h1 v1 h-1Z M34 20 h4 v1 h-4Z M4 21 h3 v1 h-3Z M8 21 h1 v1 h-1Z M10 21 h1 v1 h-1Z M12 21 h1 v1 h-1Z M14 21 h4 v1 h-4Z M19 21 h1 v1 h-1Z M24 21 h1 v1 h-1Z M26 21 h2 v1 h-2Z M29 21 h1 v1 h-1Z M31 21 h1 v1 h-1Z M34 21 h4 v1 h-4Z M2 22 h1 v1 h-1Z M4 22 h1 v1 h-1Z M6 22 h1 v1 h-1Z M8 22 h1 v1 h-1Z M13 22 h1 v1 h-1Z M18 22 h1 v1 h-1Z M20 22 h4 v1 h-4Z M25 22 h1 v1 h-1Z M28 22 h1 v1 h-1Z M30 22 h1 v1 h-1Z M32 22 h2 v1 h-2Z M36 22 h1 v1 h-1Z M1 23 h1 v1 h-1Z M4 23 h1 v1 h-1Z M9 23 h2 v1 h-2Z M12 23 h5 v1 h-5Z M19 23 h1 v1 h-1Z M21 23 h1 v1 h-1Z M24 23 h7 v1 h-7Z M36 23 h1 v1 h-1Z M3 24 h1 v1 h-1Z M6 24 h1 v1 h-1Z M8 24 h1 v1 h-1Z M11 24 h2 v1 h-2Z M14 24 h1 v1 h-1Z M16 24 h2 v1 h-2Z M23 24 h2 v1 h-2Z M26 24 h1 v1 h-1Z M28 24 h2 v1 h-2Z M32 24 h5 v1 h-5Z M1 25 h1 v1 h-1Z M4 25 h1 v1 h-1Z M6 25 h1 v1 h-1Z M9 25 h3 v1 h-3Z M13 25 h2 v1 h-2Z M20 25 h2 v1 h-2Z M23 25 h1 v1 h-1Z M25 25 h2 v1 h-2Z M29 25 h1 v1 h-1Z M31 25 h1 v1 h-1Z M34 25 h3 v1 h-3Z M1 26 h1 v1 h-1Z M5 26 h2 v1 h-2Z M10 26 h1 v1 h-1Z M14 26 h2 v1 h-2Z M17 26 h1 v1 h-1Z M19 26 h2 v1 h-2Z M26 26 h3 v1 h-3Z M30 26 h1 v1 h-1Z M33 26 h1 v1 h-1Z M35 26 h2 v1 h-2Z M4 27 h1 v1 h-1Z M10 27 h2 v1 h-2Z M17 27 h2 v1 h-2Z M20 27 h1 v1 h-1Z M22 27 h2 v1 h-2Z M28 27 h1 v1 h-1Z M30 27 h2 v1 h-2Z M35 27 h1 v1 h-1Z M4 28 h2 v1 h-2Z M10 28 h1 v1 h-1Z M13 28 h1 v1 h-1Z M15 28 h1 v1 h-1Z M18 28 h5 v1 h-5Z M25 28 h1 v1 h-1Z M27 28 h2 v1 h-2Z M32 28 h5 v1 h-5Z M1 29 h3 v1 h-3Z M6 29 h1 v1 h-1Z M9 29 h2 v1 h-2Z M12 29 h1 v1 h-1Z M14 29 h4 v1 h-4Z M19 29 h1 v1 h-1Z M24 29 h1 v1 h-1Z M26 29 h2 v1 h-2Z M34 29 h3 v1 h-3Z M10 30 h2 v1 h-2Z M13 30 h1 v1 h-1Z M18 30 h1 v1 h-1Z M20 30 h4 v1 h-4Z M25 30 h1 v1 h-1Z M28 30 h1 v1 h-1Z M34 30 h1 v1 h-1Z M36 30 h1 v1 h-1Z M10 31 h7 v1 h-7Z M19 31 h1 v1 h-1Z M21 31 h1 v1 h-1Z M24 31 h4 v1 h-4Z M34 31 h2 v1 h-2Z M11 32 h2 v1 h-2Z M14 32 h1 v1 h-1Z M16 32 h2 v1 h-2Z M23 32 h2 v1 h-2Z M26 32 h1 v1 h-1Z M28 32 h1 v1 h-1Z M34 32 h2 v1 h-2Z M37 32 h1 v1 h-1Z M10 33 h1 v1 h-1Z M13 33 h2 v1 h-2Z M20 33 h2 v1 h-2Z M23 33 h1 v1 h-1Z M25 33 h2 v1 h-2Z M34 33 h3 v1 h-3Z M14 34 h2 v1 h-2Z M17 34 h1 v1 h-1Z M19 34 h2 v1 h-2Z M26 34 h2 v1 h-2Z M31 34 h1 v1 h-1Z M36 34 h2 v1 h-2Z M11 35 h1 v1 h-1Z M17 35 h2 v1 h-2Z M20 35 h1 v1 h-1Z M22 35 h2 v1 h-2Z M29 35 h1 v1 h-1Z M31 35 h2 v1 h-2Z M34 35 h1 v1 h-1Z M36 35 h1 v1 h-1Z M10 36 h2 v1 h-2Z M13 36 h1 v1 h-1Z M15 36 h1 v1 h-1Z M18 36 h5 v1 h-5Z M25 36 h1 v1 h-1Z M27 36 h1 v1 h-1Z M30 36 h1 v1 h-1Z M32 36 h5 v1 h-5Z M11 37 h2 v1 h-2Z M14 37 h4 v1 h-4Z M19 37 h1 v1 h-1Z M24 37 h1 v1 h-1Z M26 37 h2 v1 h-2Z M31 37 h7 v1 h-7Z " /><path class="qr-1536 " stroke="transparent" fill="#000" fill-opacity="1" d="M1 1 h7 v1 h-7Z M31 1 h7 v1 h-7Z M1 2 h1 v1 h-1Z M7 2 h1 v1 h-1Z M31 2 h1 v1 h-1Z M37 2 h1 v1 h-1Z M1 3 h1 v1 h-1Z M7 3 h1 v1 h-1Z M31 3 h1 v1 h-1Z M37 3 h1 v1 h-1Z M1 4 h1 v1 h-1Z M7 4 h1 v1 h-1Z M31 4 h1 v1 h-1Z M37 4 h1 v1 h-1Z M1 5 h1 v1 h-1Z M7 5 h1 v1 h-1Z M31 5 h1 v1 h-1Z M37 5 h1 v1 h-1Z M1 6 h1 v1 h-1Z M7 6 h1 v1 h-1Z M31 6 h1 v1 h-1Z M37 6 h1 v1 h-1Z M1 7 h7 v1 h-7Z M31 7 h7 v1 h-7Z M1 31 h7 v1 h-7Z M1 32 h1 v1 h-1Z M7 32 h1 v1 h-1Z M1 33 h1 v1 h-1Z M7 33 h1 v1 h-1Z M1 34 h1 v1 h-1Z M7 34 h1 v1 h-1Z M1 35 h1 v1 h-1Z M7 35 h1 v1 h-1Z M1 36 h1 v1 h-1Z M7 36 h1 v1 h-1Z M1 37 h7 v1 h-7Z " /><path class="qr-2560 " stroke="transparent" fill="#000" fill-opacity="1" d="M29 29 h5 v1 h-5Z M29 30 h1 v1 h-1Z M33 30 h1 v1 h-1Z M29 31 h1 v1 h-1Z M31 31 h1 v1 h-1Z M33 31 h1 v1 h-1Z M29 32 h1 v1 h-1Z M33 32 h1 v1 h-1Z M29 33 h5 v1 h-5Z " /><path class="qr-3072 " stroke="transparent" fill="#000" fill-opacity="1" d="M9 7 h1 v1 h-1Z M11 7 h1 v1 h-1Z M13 7 h1 v1 h-1Z M15 7 h1 v1 h-1Z M17 7 h1 v1 h-1Z M19 7 h1 v1 h-1Z M21 7 h1 v1 h-1Z M23 7 h1 v1 h-1Z M25 7 h1 v1 h-1Z M27 7 h1 v1 h-1Z M29 7 h1 v1 h-1Z M7 9 h1 v1 h-1Z M7 11 h1 v1 h-1Z M7 13 h1 v1 h-1Z M7 15 h1 v1 h-1Z M7 17 h1 v1 h-1Z M7 19 h1 v1 h-1Z M7 21 h1 v1 h-1Z M7 23 h1 v1 h-1Z M7 25 h1 v1 h-1Z M7 27 h1 v1 h-1Z M7 29 h1 v1 h-1Z " /><path class="qr-3584 " stroke="transparent" fill="#000" fill-opacity="1" d="M9 1 h1 v1 h-1Z M9 2 h1 v1 h-1Z M9 3 h1 v1 h-1Z M9 4 h1 v1 h-1Z M9 6 h1 v1 h-1Z M1 9 h2 v1 h-2Z M5 9 h2 v1 h-2Z M32 9 h1 v1 h-1Z M34 9 h4 v1 h-4Z M9 32 h1 v1 h-1Z M9 33 h1 v1 h-1Z M9 36 h1 v1 h-1Z M9 37 h1 v1 h-1Z " /><path class="qr-5632 " stroke="transparent" fill="#000" fill-opacity="1" d="M3 3 h3 v1 h-3Z M33 3 h3 v1 h-3Z M3 4 h3 v1 h-3Z M33 4 h3 v1 h-3Z M3 5 h3 v1 h-3Z M33 5 h3 v1 h-3Z M3 33 h3 v1 h-3Z M3 34 h3 v1 h-3Z M3 35 h3 v1 h-3Z " /></svg>
